# xmcd CD database file
#
# Track frame offsets:
#	150
#	12697
#	24517
#	38115
#	52017
#	65395
#	86512
#	98670
#	111020
#	124385
#	144330
#	158207
#
# Disc length: 2302 seconds
#
# Revision: 7
# Processed by: cddbd v1.5.2PL0 Copyright (c) Steve Scherf et al.
# Submitted via: CDex 1.51
#
DISCID=9d08fc0c
DTITLE=Booker T  and The MGs - And Now!
DYEAR=1966
DGENRE=R&B
TTITLE0=My Sweet Potato
TTITLE1=Jericho
TTITLE2=No Matter What Shape
TTITLE3=One Mint Julep
TTITLE4=In The Midnight Hour
TTITLE5=Summertime
TTITLE6=Working In The Coal Mine
TTITLE7=Don't Mess Up A Good Thing
TTITLE8=Think
TTITLE9=Taboo
TTITLE10=Soul Jam
TTITLE11=Sentimental Journey
EXTD=YEAR: 1966
EXTT0=
EXTT1=
EXTT2=
EXTT3=
EXTT4=
EXTT5=
EXTT6=
EXTT7=
EXTT8=
EXTT9=
EXTT10=
EXTT11=
PLAYORDER=
